<svg xmlns="http://www.w3.org/2000/svg" width="280" height="280" style=""><rect id="backgroundrect" width="100%" height="100%" x="0" y="0" fill="none" stroke="none" class="" style=""/><defs><style>.a{fill:#4dcfe0;}.b{fill:#1a76dc;}</style></defs><g class="currentLayer" style=""><title>Layer 1</title><rect fill="#ffffff" stroke-dashoffset="" fill-rule="nonzero" id="svg_4" x="0" y="0" width="280" height="280" style="color: rgb(74, 144, 214);" class=""/><g id="svg_1" class=""><path class="a" d="M236.1047217375237,239.01269384478107 H43.84331754296051 A8.458947667211035,8.458947667211035 0 0 1 35.23718245472329,230.397900672954 V206.29379595901804 A69.51575314231054,69.51575314231054 0 0 1 104.11223741139044,136.2498997177311 a8.606135088237226,8.606135088237226 0 1 1 0,17.220928260064223 a52.433354219682734,52.433354219682734 0 0 0 -51.66278478019269,52.814309897632874 v15.497969625698826 h175.06645018526828 v-15.497969625698826 a52.433354219682734,52.433354219682734 0 0 0 -51.66278478019269,-52.814309897632874 a8.606135088237226,8.606135088237226 0 0 1 0,-17.220928260064223 A69.51575314231054,69.51575314231054 0 0 1 244.76280532729956,206.29379595901804 v24.104104713936053 A8.458947667211035,8.458947667211035 0 0 1 236.1047217375237,239.01269384478107 z" id="svg_2"/><path class="b" d="M139.99130357212513,164.3713383070036 a51.80997220121886,51.80997220121886 0 0 1 -51.66278478019269,-51.66278478019269 V84.03298067747322 a42.987385023237245,42.987385023237245 0 0 1 43.04799160836568,-43.04799160836568 h17.220928260064223 a42.987385023237245,42.987385023237245 0 0 1 43.04799160836568,43.04799160836568 v28.70154710010705 A51.80997220121886,51.80997220121886 0 0 1 139.99130357212513,164.3713383070036 zm-8.606135088237226,-106.1913952286012 a25.72316634522414,25.72316634522414 0 0 0 -25.827063348301454,25.827063348301454 v28.70154710010705 a34.441856520128454,34.441856520128454 0 1 0 68.87505495666714,0 V84.03298067747322 a25.72316634522414,25.72316634522414 0 0 0 -25.827063348301454,-25.827063348301454 z" id="svg_3"/></g></g></svg>